# xmcd CD database file
#
# Track frame offsets:
#	150
#	21128
#	49246
#	75135
#	95542
#	120609
#	153136
#	182856
#	219312
#	248419
#	265963
#	293099
#
# Disc length: 4416 seconds
#
# Revision: 0
# Processed by: cddbd v1.5.2PL0 Copyright (c) Steve Scherf et al.
# Submitted via: CDex 1.77
#
DISCID=93113e0c
DTITLE=Julian Cannonball Adderly - Cannonball Quintet In Chicago - Cannonball Adderly And The Poll Winners
DYEAR=1900
DGENRE=Jazz
TTITLE0=Limehouse Blues
TTITLE1=Stars Fell On Alabama
TTITLE2=Wabash
TTITLE3=Grand Central
TTITLE4=You're a Weaber of Dreams
TTITLE5=The Sleeper
TTITLE6=The Chant
TTITLE7=Lolita
TTITLE8=Azule Sarape
TTITLE9=Au Privave
TTITLE10=Yours Is My Heart Alone
TTITLE11=Never Will I Marry
EXTD=
EXTT0=
EXTT1=
EXTT2=
EXTT3=
EXTT4=
EXTT5=
EXTT6=
EXTT7=
EXTT8=
EXTT9=
EXTT10=
EXTT11=
PLAYORDER=
